<?xml version="1.0" encoding="utf-8"?>
<svg version="1.1" id="Layer_1" x="0px" y="0px" width="100%" viewBox="0 0 480 400" enable-background="new 0 0 480 400" xmlns="http://www.w3.org/2000/svg">
  <path stroke-width="0" d="M 71.481 187.531 C 73.621 187.016 75.673 186.911 77.901 187.531 C 80.497 188.253 84.27 190.434 86.049 192.222 C 87.465 193.644 87.042 195.811 88.519 196.914 C 90.292 198.238 93.792 197.29 96.667 198.889 C 100.428 200.982 105.864 206.639 108.765 210 C 111.001 212.59 110.674 215.179 113.457 217.16 C 117.339 219.925 126.9 221.982 132.222 223.086 C 136.426 223.959 136.118 223.834 143.086 224.074 C 161.739 224.716 243.351 225.674 270.988 224.074 C 287.137 223.139 291.434 222.471 304.074 219.63 C 319.714 216.114 344.655 208.44 358.395 202.839 C 368.487 198.726 374.645 192.443 381.605 190.494 C 387.212 188.923 392.883 189.347 396.914 190 C 400.019 190.503 401.845 191.413 404.321 192.963 C 407.192 194.759 410.29 196.922 412.963 200.617 C 416.442 205.428 420.289 213.994 422.346 220.864 C 424.332 227.5 424.853 235.094 425.309 241.111 C 425.698 246.255 425.913 250.877 425.309 254.938 C 424.781 258.483 424.181 260.946 422.346 264.321 C 420.012 268.612 415.042 274.874 411.235 278.395 C 408.016 281.371 405.761 282.575 401.358 284.815 C 395.259 287.916 384.179 292.346 376.667 294.691 C 370.21 296.707 365.356 296.46 358.889 298.642 C 351.249 301.22 341.184 307.201 333.704 310 C 327.472 312.331 327.129 313.762 316.914 314.938 C 292.844 317.71 201.024 318.385 167.778 315.432 C 147.489 313.63 136.828 309.729 125.309 306.543 C 116.282 304.046 111.437 301.115 103.086 298.642 C 93.473 295.795 78.128 293.146 70.494 290.741 C 65.478 289.16 62.705 288.249 59.63 286.296 C 56.771 284.481 54.701 282.574 52.469 279.63 C 49.774 276.074 46.3 270.124 45.062 265.802 C 44.012 262.139 43.912 260.762 44.568 255.432 C 45.827 245.207 53.326 215.028 57.407 204.074 C 59.866 197.474 61.836 193.731 64.568 190.988 C 66.668 188.879 69.177 188.086 71.481 187.531 Z" style="stroke-width: 2px; stroke: $NORMALCOLOR; paint-order: fill; fill: $NORMALCOLOR;"/>
  <path stroke-width="0" d="M 196.42 44.815 C 210.122 43.074 223.882 43.409 239.383 45.802 C 257.101 48.538 283.808 58.084 297.16 62.099 C 305.625 64.644 311.413 66.083 315.432 68.025 C 318.017 69.273 319.09 70.156 320.617 71.728 C 322.245 73.403 322.905 75.817 324.815 77.901 C 327.118 80.414 331.4 82.95 333.951 85.556 C 336.244 87.899 338.289 91.388 339.63 92.716 C 340.378 93.457 340.376 92.751 341.358 93.951 C 344.791 98.145 361.703 124.343 366.543 135.432 C 369.93 143.193 370.724 148.922 371.481 154.691 C 372.127 159.608 371.615 163.111 371.481 168.025 C 371.328 173.662 372.2 181.615 370.494 186.79 C 368.999 191.323 365.033 195.828 362.839 197.901 C 361.464 199.201 359.972 199.12 359.136 199.877 C 358.475 200.474 358.966 201.003 357.901 201.852 C 355.3 203.926 340.982 209.526 338.395 211.481 C 337.375 212.253 337.961 212.573 337.16 213.21 C 335.744 214.336 331.785 216.544 329.259 217.16 C 327.036 217.703 324.79 217.529 322.839 217.16 C 321.03 216.819 320.924 215.369 317.901 215.185 C 310.868 214.757 288.495 220.56 274.444 221.605 C 261.045 222.601 248.602 222.558 235.432 221.605 C 221.944 220.629 202.629 215.957 194.444 215.679 C 190.11 215.532 188.743 217.142 186.049 216.667 C 183.307 216.183 180.561 212.751 178.148 212.716 C 175.997 212.685 174.294 215.188 172.222 215.679 C 170.176 216.164 168.223 216.339 165.802 215.679 C 162.655 214.82 160.338 211.636 154.938 209.753 C 146.23 206.716 124.564 205.242 114.938 201.358 C 107.981 198.551 102.918 194.335 99.877 191.235 C 97.815 189.133 97.162 187.486 96.42 185.309 C 95.652 183.056 95.475 181.592 95.432 177.901 C 95.356 171.364 96.02 153.972 97.901 146.79 C 99.158 141.994 101.331 138.819 103.086 136.667 C 104.308 135.169 105.617 136.115 106.79 133.951 C 109.397 129.14 110.862 109.442 113.704 100.864 C 115.863 94.347 118.07 89.964 121.111 85.556 C 123.978 81.4 126.542 78.932 131.235 74.938 C 137.748 69.395 148 60.631 158.395 55.679 C 169.531 50.374 183.166 46.499 196.42 44.815 Z" style="stroke-width: 2px; paint-order: stroke; stroke: $LIGHT; fill: $LIGHT;"/>
  <path stroke="rgb(254,0,0)" stroke-width="0" d="M 94.691 299.136 C 98.532 298.504 104.494 299.392 109.506 300.617 C 114.855 301.925 119.808 305.416 125.802 307.037 C 132.37 308.812 142.138 308.714 147.531 310.494 C 151.491 311.801 152.692 314.053 156.42 315.432 C 161.126 317.174 165.216 318.473 174.198 319.383 C 190.189 321.003 232.36 321.814 251.235 320.37 C 264.115 319.385 273.575 315.639 280.37 314.938 C 284.66 314.496 287.135 314.5 289.753 314.938 C 291.91 315.299 292.614 317.178 295.185 316.914 C 299.564 316.463 306.503 309.52 314.938 307.531 C 325.944 304.935 349.192 303.94 357.407 305.556 C 361.9 306.439 363.563 307.795 365.556 310.247 C 367.754 312.952 369.436 318.281 369.506 321.605 C 369.565 324.401 368.275 326.882 367.037 329.012 C 365.853 331.051 364.406 332.465 362.346 334.198 C 359.807 336.332 357.465 338.331 352.469 340.617 C 344.324 344.344 323.376 349.384 314.444 352.963 C 308.515 355.339 307.345 358.092 301.605 359.383 C 293.685 361.164 278.162 361.415 269.506 359.877 C 262.614 358.652 258.207 352.658 252.716 352.963 C 247.176 353.27 242.668 359.131 236.42 361.852 C 229.261 364.969 219.043 368.87 211.728 370.247 C 205.667 371.388 201.765 371.669 195.432 370.741 C 187.351 369.557 175.686 366.138 166.79 361.852 C 157.91 357.573 151.563 348.239 142.099 345.062 C 132.114 341.71 116.441 345.029 108.025 343.086 C 101.981 341.691 97.601 339.869 94.444 336.914 C 91.613 334.262 90.816 328.817 89.259 326.79 C 88.287 325.524 87.406 325.923 86.543 324.568 C 85.109 322.315 82.325 316.439 82.593 312.716 C 82.851 309.13 85.532 304.874 87.778 302.593 C 89.702 300.638 91.737 299.622 94.691 299.136 Z" style="stroke: rgb(129, 151, 57); stroke-width: 2px; fill: rgb(255, 225, 146); paint-order: stroke;"/>
  <path opacity="1.000000" stroke="none" d=" M319.781128,47.136429 C361.537079,73.858406 386.777435,111.091270 394.257812,159.958084 C394.700928,162.853073 396.443298,164.244370 398.312866,165.877823 C415.213684,180.644287 429.437836,197.434982 437.523102,218.712036 C443.343994,234.030197 446.462097,249.780441 442.711945,266.105255 C440.316467,276.533051 433.983978,284.702240 426.128113,291.705963 C423.580231,293.977509 421.767883,296.606110 420.331604,299.692108 C410.385651,321.062195 394.703674,336.786835 373.382019,346.835205 C371.218292,347.854919 369.472809,349.275421 367.727631,350.845490 C336.267242,379.149170 300.723358,385.815094 261.227509,370.609039 C257.708710,369.254333 255.156403,369.420166 251.998138,371.425110 C211.634766,397.049072 163.028488,391.815918 128.759949,358.227509 C126.652039,356.161438 124.432838,354.779358 121.458458,354.348236 C87.312531,349.398865 62.431721,331.443237 46.766003,300.760895 C45.201092,297.695892 43.206532,295.287872 40.555931,293.142212 C30.310497,284.848541 22.162395,274.804230 20.147024,261.521240 C18.075411,247.867569 20.126688,234.345581 24.756575,221.249725 C32.710197,198.752502 47.006264,180.832901 64.951324,165.621918 C68.251083,162.824890 69.889915,159.685760 70.580521,155.620422 C81.739044,89.934853 134.025848,37.427654 199.920624,25.567953 C242.433228,17.916561 282.335236,24.634716 319.781128,47.136429 M135.111130,204.306351 C156.517654,210.273407 178.477249,213.041946 200.537186,214.462234 C219.123474,215.658890 237.758026,216.053680 256.449310,214.955276 C278.746613,213.644958 300.887177,211.621536 322.653595,206.542999 C334.836945,203.700378 346.754578,200.026596 357.508575,193.283539 C364.368988,188.981873 367.443726,183.310120 366.720795,174.933441 C364.643921,150.868546 357.509064,128.724686 343.707855,108.757889 C314.024231,65.813293 257.812439,43.240242 206.333191,53.820107 C164.406570,62.436745 132.650085,85.042992 112.060555,122.807167 C102.811874,139.770584 98.707863,158.169250 97.344406,177.293716 C96.950119,182.824203 99.332794,186.925186 103.566147,190.172501 C112.738747,197.208588 123.437050,200.856613 135.111130,204.306351 M49.180630,243.549622 C45.896629,256.304474 50.901073,265.504456 61.337448,272.600281 C70.376846,278.746277 80.189957,283.220306 90.468506,286.729645 C128.817383,299.822906 168.686295,303.875549 208.794510,305.487671 C234.230881,306.510010 259.725586,306.103973 285.179504,303.905060 C310.757507,301.695465 336.110413,298.380829 360.863586,291.490204 C376.946106,287.013214 392.747375,281.659332 405.952545,270.804504 C411.737152,266.049469 415.767853,260.231079 415.437378,252.434052 C415.248169,247.969681 414.577820,243.469513 413.593658,239.105087 C410.044678,223.367081 401.534546,210.363663 390.673828,198.752914 C389.118500,197.090179 387.208954,194.915054 385.079041,198.164017 C377.370148,209.923035 365.648102,216.158691 353.119049,221.067276 C326.307861,231.571304 298.088562,235.166077 269.639832,237.214859 C247.359711,238.819382 225.057831,238.778381 202.732574,237.450348 C178.759369,236.024277 154.988739,233.327438 131.757553,227.150131 C110.945374,221.616058 90.888992,214.475800 77.523605,195.879715 C77.359772,195.651764 76.940163,195.607651 75.796722,195.112778 C62.767971,208.467896 52.421829,223.490250 49.180630,243.549622 M252.757156,328.847443 C248.618286,327.532288 244.513397,329.084930 240.379120,329.005249 C224.238831,328.694183 208.107010,328.391541 191.981720,327.417328 C176.374496,326.474396 160.860947,324.821960 145.383682,322.701721 C143.481079,322.441101 141.504593,321.667603 139.793335,323.227753 C139.793594,325.143829 140.927322,326.442841 141.796036,327.822540 C159.466415,355.887451 198.018280,366.670288 227.608871,351.706299 C237.962524,346.470490 247.264938,339.883209 252.757156,328.847443 M283.983154,327.166168 C277.976013,330.972168 277.368530,338.168304 273.114838,343.117340 C299.605408,357.979858 342.691284,345.452576 356.820679,316.265045 C349.874725,317.650574 343.261780,319.029449 336.624939,320.281921 C319.473602,323.518646 302.135193,325.339630 283.983154,327.166168 M99.452652,313.468323 C98.451706,313.763184 97.226440,312.726685 96.176186,314.174957 C100.929749,317.824310 105.958839,320.672852 111.962418,321.854065 C112.290634,317.814545 110.427109,315.931549 106.774986,315.301880 C104.517372,314.912598 102.325401,314.142639 99.452652,313.468323 z" style="fill: $DARK;"/>
  <path opacity="1.000000" stroke="none" d=" M263.632843,140.874786 C264.015106,136.082581 265.214447,131.934402 266.940033,127.966461 C268.075897,125.354607 269.527374,122.781975 272.932587,122.724960 C276.409058,122.666740 277.879425,125.330170 278.922333,127.921791 C283.036713,138.145874 284.030609,148.838150 282.866882,159.716171 C282.250122,165.481247 281.490967,171.285034 278.934845,176.606888 C277.633362,179.316528 276.154266,182.248932 272.579529,182.129303 C269.261841,182.018250 267.825439,179.183029 266.802155,176.587112 C262.300903,165.167953 261.762695,153.339050 263.632843,140.874786 z" style="fill: $DARK;"/>
  <path opacity="1.000000" stroke="none" d=" M302.606018,121.583649 C307.349121,117.358795 310.530396,117.992409 313.029083,123.780495 C317.777924,134.780884 318.021637,146.389938 316.787506,158.058640 C316.283783,162.821136 315.462128,167.605972 313.368713,172.019073 C312.018036,174.866470 310.850891,178.183960 306.979126,178.140839 C303.097809,178.097641 301.852081,174.751999 300.746033,171.850571 C297.009735,162.049286 296.031342,151.845154 297.181793,141.474365 C297.931122,134.719345 298.767303,127.925468 302.606018,121.583649 z" style="fill: $DARK;"/>
  <path opacity="1.000000" stroke="none" d=" M343.651398,162.429962 C345.023895,161.445679 346.023987,160.433136 347.227905,160.031174 C349.395874,159.307343 351.575623,159.500259 352.924316,161.709671 C354.192505,163.787201 354.041992,165.893692 352.266785,167.615326 C348.461029,171.306107 344.665222,175.017761 340.677246,178.505859 C338.426697,180.474335 335.714630,180.714417 333.618225,178.215149 C331.598724,175.807587 332.037659,173.231949 334.239807,171.106995 C337.220062,168.231201 340.321442,165.480972 343.651398,162.429962 z" style="fill: $DARK;"/>
  <path opacity="1.000000" stroke="none" d=" M241.920868,185.013519 C241.465820,185.321457 241.328964,185.446106 241.174118,185.475250 C236.514832,186.353287 222.570404,174.707352 222.720215,170.070282 C222.847092,166.144012 226.964874,164.120438 230.322510,166.757019 C234.612564,170.125809 238.566391,173.949615 242.461334,177.784302 C244.699280,179.987595 244.547379,182.523926 241.920868,185.013519 z" style="fill: $DARK;"/>
  <path opacity="1.000000" stroke="none" d=" M225.903503,185.881683 C227.563156,186.386108 228.860779,186.710297 230.094620,187.196365 C232.615967,188.189590 233.659424,190.130310 233.209610,192.761978 C232.718155,195.637146 230.633087,196.570374 228.057007,196.272003 C223.582245,195.753693 219.247513,194.489044 215.085770,192.826935 C212.888428,191.949371 211.917786,189.858643 212.533249,187.447617 C213.208359,184.802872 215.201538,183.526031 217.778290,183.870239 C220.394516,184.219727 222.937515,185.117218 225.903503,185.881683 z" style="fill: $DARK;"/>
  <path opacity="1.000000" stroke="none" d=" M355.962494,185.067566 C352.927521,186.130371 350.300354,187.155029 347.601929,187.932373 C344.804138,188.738297 342.098206,188.407608 340.998291,185.305252 C339.877411,182.143707 341.179901,179.839722 344.440704,178.747681 C346.949585,177.907486 349.426636,176.968994 351.949463,176.174683 C354.686493,175.312958 357.409546,175.306793 358.796783,178.285492 C360.100220,181.084229 359.149536,183.444626 355.962494,185.067566 z" style="fill: $DARK;"/>
</svg>