<svg version="1.1" id="Layer_1" xmlns="http://www.w3.org/2000/svg" xmlns:xlink="http://www.w3.org/1999/xlink" x="0px" y="0px"
	 width="100%" viewBox="0 0 551 550" enable-background="new 0 0 551 550" xml:space="preserve">
<path fill="#3e707a" opacity="1.000000" stroke="none" 
	d="
M273.000000,1.000000 
	C275.370575,1.000000 277.741119,1.000000 280.746887,1.394381 
	C302.939301,1.690076 324.072144,4.712787 344.966614,9.953859 
	C371.908447,16.711823 397.368408,27.073040 420.657593,42.119423 
	C433.882965,50.663914 446.369385,60.440140 458.665619,70.313034 
	C474.791687,83.260941 488.207916,98.859673 500.240051,115.642479 
	C511.715118,131.648193 521.424255,148.608505 529.431152,166.662231 
	C540.027832,190.555344 546.977600,215.325729 550.025452,241.246140 
	C550.527466,245.515793 551.334106,249.749619 552.000000,254.000000 
	C552.000000,268.687561 552.000000,283.375122 551.610596,298.714600 
	C548.813660,314.302979 546.955139,329.354187 543.863953,344.147797 
	C539.707825,364.037994 532.107544,382.863434 522.895020,400.900116 
	C513.523132,419.248779 502.798798,436.892670 488.479492,451.899780 
	C475.641937,465.353882 463.064850,479.252869 448.874268,491.171265 
	C430.071899,506.962982 408.830475,519.335632 386.117310,529.024841 
	C362.407776,539.139038 337.888550,546.080994 312.255005,549.032227 
	C308.148926,549.505005 304.083954,550.335083 300.000000,551.000000 
	C284.979095,551.000000 269.958221,551.000000 254.285400,550.610596 
	C240.885345,548.390015 227.969910,547.321716 215.423477,544.570618 
	C188.364151,538.637207 162.848083,528.427673 138.890854,514.428223 
	C120.073128,503.431946 102.484863,490.753235 87.007202,475.381561 
	C78.813644,467.244141 71.139671,458.566803 63.476883,449.915588 
	C51.341068,436.214386 41.542347,420.883087 32.982071,404.756683 
	C24.071421,387.970306 16.867109,370.444611 12.066756,352.062286 
	C8.877089,339.847870 6.004235,327.475311 4.193901,314.998779 
	C2.591170,303.953033 2.664099,292.665070 1.941375,281.487671 
	C1.908138,280.973633 1.326320,280.495087 1.000001,280.000000 
	C1.000000,277.629425 1.000000,275.258881 1.394381,272.253113 
	C2.524522,260.940796 2.443419,250.127823 4.190550,239.618790 
	C6.710572,224.460861 9.791568,209.305161 14.000975,194.538406 
	C22.308252,165.396164 36.644371,139.052231 54.223083,114.508232 
	C67.545464,95.907051 83.392418,79.487068 100.867622,64.815773 
	C121.516045,47.480408 144.498123,33.706650 169.381256,23.239334 
	C201.074448,9.907305 233.984695,2.156354 268.514648,1.957016 
	C270.011536,1.948374 271.504974,1.332831 273.000000,1.000000 
M33.997639,256.659454 
	C33.846764,267.473022 33.019020,278.326660 33.655804,289.093628 
	C37.539730,354.764221 62.947918,410.679993 111.749153,455.013763 
	C168.477890,506.549286 235.471634,527.225342 311.398132,517.063721 
	C372.249634,508.919708 422.750336,480.356110 462.567932,434.119110 
	C503.380096,386.727295 522.379578,330.914886 520.398499,268.340546 
	C518.371094,204.301620 494.437164,149.117554 448.893555,104.452202 
	C389.376343,46.082729 317.322601,23.421696 235.042404,36.997589 
	C126.338913,54.933224 43.483383,145.822281 33.997639,256.659454 
z"/>
<path fill="#FFFFFF" opacity="0.000000" stroke="none" 
	d="
M272.531342,1.000000 
	C271.504974,1.332831 270.011536,1.948374 268.514648,1.957016 
	C233.984695,2.156354 201.074448,9.907305 169.381256,23.239334 
	C144.498123,33.706650 121.516045,47.480408 100.867622,64.815773 
	C83.392418,79.487068 67.545464,95.907051 54.223083,114.508232 
	C36.644371,139.052231 22.308252,165.396164 14.000975,194.538406 
	C9.791568,209.305161 6.710572,224.460861 4.190550,239.618790 
	C2.443419,250.127823 2.524522,260.940796 1.394381,271.808960 
	C1.000000,181.739471 1.000000,91.478943 1.000000,1.000000 
	C91.354111,1.000000 181.708389,1.000000 272.531342,1.000000 
z"/>
<path fill="#FFFFFF" opacity="0.000000" stroke="none" 
	d="
M552.000000,253.531342 
	C551.334106,249.749619 550.527466,245.515793 550.025452,241.246140 
	C546.977600,215.325729 540.027832,190.555344 529.431152,166.662231 
	C521.424255,148.608505 511.715118,131.648193 500.240051,115.642479 
	C488.207916,98.859673 474.791687,83.260941 458.665619,70.313034 
	C446.369385,60.440140 433.882965,50.663914 420.657593,42.119423 
	C397.368408,27.073040 371.908447,16.711823 344.966614,9.953859 
	C324.072144,4.712787 302.939301,1.690076 281.191040,1.394381 
	C371.257843,1.000000 461.515717,1.000000 552.000000,1.000000 
	C552.000000,85.020760 552.000000,169.041718 552.000000,253.531342 
z"/>
<path fill="#FFFFFF" opacity="0.000000" stroke="none" 
	d="
M1.000001,280.468658 
	C1.326320,280.495087 1.908138,280.973633 1.941375,281.487671 
	C2.664099,292.665070 2.591170,303.953033 4.193901,314.998779 
	C6.004235,327.475311 8.877089,339.847870 12.066756,352.062286 
	C16.867109,370.444611 24.071421,387.970306 32.982071,404.756683 
	C41.542347,420.883087 51.341068,436.214386 63.476883,449.915588 
	C71.139671,458.566803 78.813644,467.244141 87.007202,475.381561 
	C102.484863,490.753235 120.073128,503.431946 138.890854,514.428223 
	C162.848083,528.427673 188.364151,538.637207 215.423477,544.570618 
	C227.969910,547.321716 240.885345,548.390015 253.816742,550.610596 
	C169.737106,551.000000 85.474213,551.000000 1.000000,551.000000 
	C1.000000,460.979218 1.000000,370.958252 1.000001,280.468658 
z"/>
<path fill="#FFFFFF" opacity="0.000000" stroke="none" 
	d="
M300.468658,551.000000 
	C304.083954,550.335083 308.148926,549.505005 312.255005,549.032227 
	C337.888550,546.080994 362.407776,539.139038 386.117310,529.024841 
	C408.830475,519.335632 430.071899,506.962982 448.874268,491.171265 
	C463.064850,479.252869 475.641937,465.353882 488.479492,451.899780 
	C502.798798,436.892670 513.523132,419.248779 522.895020,400.900116 
	C532.107544,382.863434 539.707825,364.037994 543.863953,344.147797 
	C546.955139,329.354187 548.813660,314.302979 551.610596,299.183258 
	C552.000000,382.927032 552.000000,466.854095 552.000000,551.000000 
	C468.312561,551.000000 384.624939,551.000000 300.468658,551.000000 
z"/>
<path fill="#b7e2eb" opacity="1.000000" stroke="none" 
	d="
M34.006714,256.192566 
	C43.483383,145.822281 126.338913,54.933224 235.042404,36.997589 
	C317.322601,23.421696 389.376343,46.082729 448.893555,104.452202 
	C494.437164,149.117554 518.371094,204.301620 520.398499,268.340546 
	C522.379578,330.914886 503.380096,386.727295 462.567932,434.119110 
	C422.750336,480.356110 372.249634,508.919708 311.398132,517.063721 
	C235.471634,527.225342 168.477890,506.549286 111.749153,455.013763 
	C62.947918,410.679993 37.539730,354.764221 33.655804,289.093628 
	C33.019020,278.326660 33.846764,267.473022 34.006714,256.192566 
M132.369171,207.933685 
	C129.912521,207.536972 127.441574,207.212799 125.001526,206.731857 
	C107.883224,203.357635 87.375687,213.287491 80.579247,229.159851 
	C75.509148,241.000504 80.605820,251.908325 93.785126,253.727966 
	C111.821983,256.218262 136.778915,248.353226 145.741592,229.200165 
	C146.638428,229.944351 147.501938,230.733536 148.437149,231.425873 
	C159.562515,239.661896 171.742950,236.757919 176.954437,223.969925 
	C179.493729,217.738968 181.135529,210.921936 181.895981,204.223999 
	C185.416626,173.214874 185.430832,142.074112 183.685547,110.967552 
	C183.226135,102.779274 181.389526,94.434875 178.723434,86.663704 
	C175.492828,77.247055 167.957489,74.258072 158.602341,77.964844 
	C154.573013,79.561371 150.329575,82.109077 147.708130,85.428703 
	C143.438675,90.835243 139.624939,96.904617 137.022598,103.268295 
	C128.952545,123.002586 126.401299,143.905624 127.498009,164.977112 
	C128.245529,179.339569 131.243149,193.584900 132.369171,207.933685 
M304.852081,194.882660 
	C306.798096,197.064056 308.415314,199.712067 310.742737,201.352219 
	C327.691559,213.296219 359.668304,212.221680 376.409546,201.647018 
	C386.042999,195.561996 389.163635,186.559891 385.619659,177.308487 
	C382.351227,168.776535 375.293762,164.172745 367.564362,161.195587 
	C347.675110,153.534775 328.526489,154.979279 310.861420,167.101395 
	C312.728516,144.247192 311.698761,121.501282 307.958649,98.900658 
	C305.859314,86.214966 302.951752,73.686996 295.871338,62.675632 
	C285.429108,46.435970 266.523926,46.234386 256.504761,62.790195 
	C252.469101,69.458794 249.681534,77.349243 248.245255,85.041962 
	C242.647827,115.021935 245.754761,144.749802 252.783264,174.151550 
	C255.502716,185.527573 259.065002,196.672668 267.677795,205.274582 
	C276.505554,214.091217 290.043884,213.622925 298.123718,204.061432 
	C300.674011,201.043411 302.506897,197.419174 304.852081,194.882660 
M228.270508,273.819946 
	C229.749649,273.584473 231.234146,273.378387 232.707108,273.109100 
	C253.334335,269.338013 266.485474,251.465118 263.963684,230.642059 
	C262.784576,220.905746 259.333496,217.615280 249.641693,218.093292 
	C231.691376,218.978653 214.467407,223.169449 198.145676,230.732880 
	C191.461014,233.830551 190.036957,237.167145 191.467773,244.415451 
	C194.885239,261.727875 209.194229,273.452362 228.270508,273.819946 
z"/>
<path fill="#3e707a" opacity="1.000000" stroke="none" 
	d="
M304.668121,194.072372 
	C302.506897,197.419174 300.674011,201.043411 298.123718,204.061432 
	C290.043884,213.622925 276.505554,214.091217 267.677795,205.274582 
	C259.065002,196.672668 255.502716,185.527573 252.783264,174.151550 
	C245.754761,144.749802 242.647827,115.021935 248.245255,85.041962 
	C249.681534,77.349243 252.469101,69.458794 256.504761,62.790195 
	C266.523926,46.234386 285.429108,46.435970 295.871338,62.675632 
	C302.951752,73.686996 305.859314,86.214966 307.958649,98.900658 
	C311.698761,121.501282 312.728516,144.247192 310.723328,167.908798 
	C308.612885,177.168259 306.640503,185.620316 304.668121,194.072372 
M255.570343,105.673668 
	C257.245361,110.317696 258.383789,115.255333 260.725433,119.534584 
	C263.961731,125.448822 269.217773,128.919678 276.373535,127.932747 
	C283.346954,126.970963 287.718292,122.258400 288.764862,115.913589 
	C290.153687,107.493919 290.711731,98.782600 290.268677,90.267258 
	C289.949249,84.128319 288.244873,77.724556 285.678925,72.115646 
	C281.474121,62.924267 270.120331,61.724407 263.417694,69.377708 
	C261.073334,72.054573 259.285431,75.431145 257.996552,78.778206 
	C254.768356,87.161354 254.455048,95.951950 255.570343,105.673668 
z"/>
<path fill="#3e707a" opacity="1.000000" stroke="none" 
	d="
M133.234680,207.882599 
	C131.243149,193.584900 128.245529,179.339569 127.498009,164.977112 
	C126.401299,143.905624 128.952545,123.002586 137.022598,103.268295 
	C139.624939,96.904617 143.438675,90.835243 147.708130,85.428703 
	C150.329575,82.109077 154.573013,79.561371 158.602341,77.964844 
	C167.957489,74.258072 175.492828,77.247055 178.723434,86.663704 
	C181.389526,94.434875 183.226135,102.779274 183.685547,110.967552 
	C185.430832,142.074112 185.416626,173.214874 181.895981,204.223999 
	C181.135529,210.921936 179.493729,217.738968 176.954437,223.969925 
	C171.742950,236.757919 159.562515,239.661896 148.437149,231.425873 
	C147.501938,230.733536 146.638428,229.944351 145.309143,228.739258 
	C141.205627,221.836365 137.534576,215.394363 133.858124,208.674408 
	C133.577881,208.227692 133.303024,208.058960 133.081512,207.934769 
	C133.134857,207.979309 133.234680,207.882599 133.234680,207.882599 
M170.800049,103.098755 
	C170.610306,102.290131 170.404205,101.484947 170.233536,100.672318 
	C169.256332,96.019691 168.149292,91.327667 162.727951,89.936600 
	C157.219330,88.523155 153.090027,91.247879 149.531281,95.093895 
	C140.191177,105.187943 136.212173,129.564636 141.881119,141.843643 
	C144.983582,148.563614 150.375610,151.145691 157.356262,149.131226 
	C164.315094,147.123093 167.810181,141.534576 168.688873,135.209595 
	C170.120941,124.901314 170.229858,114.409218 170.800049,103.098755 
z"/>
<path fill="#3e707a" opacity="1.000000" stroke="none" 
	d="
M227.826447,273.831543 
	C209.194229,273.452362 194.885239,261.727875 191.467773,244.415451 
	C190.036957,237.167145 191.461014,233.830551 198.145676,230.732880 
	C214.467407,223.169449 231.691376,218.978653 249.641693,218.093292 
	C259.333496,217.615280 262.784576,220.905746 263.963684,230.642059 
	C266.485474,251.465118 253.334335,269.338013 232.707108,273.109100 
	C231.234146,273.378387 229.749649,273.584473 227.826447,273.831543 
M207.301651,256.520844 
	C222.116226,270.942139 247.704849,265.151489 253.691391,245.537888 
	C254.239120,241.162689 255.013351,236.800888 255.272751,232.408661 
	C255.548401,227.741425 252.643143,226.183838 248.500381,227.015411 
	C235.984695,229.527634 223.341141,231.619095 211.052704,234.988068 
	C197.981537,238.571640 196.915726,243.153290 205.172440,254.221390 
	C205.657944,254.872192 206.354553,255.365509 207.301651,256.520844 
z"/>
<path fill="#6cc3d5" opacity="1.000000" stroke="none" 
	d="
M304.760101,194.477509 
	C306.640503,185.620316 308.612885,177.168259 310.769287,168.363647 
	C328.526489,154.979279 347.675110,153.534775 367.564362,161.195587 
	C375.293762,164.172745 382.351227,168.776535 385.619659,177.308487 
	C389.163635,186.559891 386.042999,195.561996 376.409546,201.647018 
	C359.668304,212.221680 327.691559,213.296219 310.742737,201.352219 
	C308.415314,199.712067 306.798096,197.064056 304.760101,194.477509 
M313.947449,193.504562 
	C316.922363,195.271683 319.694580,197.680847 322.907196,198.694916 
	C336.894043,203.109924 350.995392,202.943008 364.953644,198.403320 
	C367.600891,197.542358 370.204041,196.219940 372.486633,194.623108 
	C380.171234,189.247192 380.218536,181.983536 374.417389,174.635025 
	C364.192566,161.682938 326.169037,161.188919 314.566681,175.855530 
	C309.994812,181.634827 309.318146,187.696121 313.947449,193.504562 
z"/>
<path fill="#6cc3d5" opacity="1.000000" stroke="none" 
	d="
M133.863510,208.952377 
	C137.534576,215.394363 141.205627,221.836365 145.011322,228.587799 
	C136.778915,248.353226 111.821983,256.218262 93.785126,253.727966 
	C80.605820,251.908325 75.509148,241.000504 80.579247,229.159851 
	C87.375687,213.287491 107.883224,203.357635 125.001526,206.731857 
	C127.441574,207.212799 129.912521,207.536972 132.801926,207.908142 
	C133.234680,207.882599 133.134857,207.979309 133.203918,208.123184 
	C133.436127,208.524536 133.632965,208.752975 133.863510,208.952377 
M136.935425,228.029709 
	C137.752487,222.084595 135.083115,218.010757 129.886475,215.565903 
	C116.127525,209.092804 94.802986,216.598099 87.928711,230.233719 
	C84.023178,237.980621 87.369843,245.045761 95.853882,246.942795 
	C107.416603,249.528214 117.675743,245.573288 127.074692,239.667313 
	C131.027664,237.183411 133.602570,232.506348 136.935425,228.029709 
z"/>
<path fill="#FEFDFE" opacity="1.000000" stroke="none" 
	d="
M255.473328,105.243271 
	C254.455048,95.951950 254.768356,87.161354 257.996552,78.778206 
	C259.285431,75.431145 261.073334,72.054573 263.417694,69.377708 
	C270.120331,61.724407 281.474121,62.924267 285.678925,72.115646 
	C288.244873,77.724556 289.949249,84.128319 290.268677,90.267258 
	C290.711731,98.782600 290.153687,107.493919 288.764862,115.913589 
	C287.718292,122.258400 283.346954,126.970963 276.373535,127.932747 
	C269.217773,128.919678 263.961731,125.448822 260.725433,119.534584 
	C258.383789,115.255333 257.245361,110.317696 255.473328,105.243271 
z"/>
<path fill="#FEFDFD" opacity="1.000000" stroke="none" 
	d="
M170.848587,103.546722 
	C170.229858,114.409218 170.120941,124.901314 168.688873,135.209595 
	C167.810181,141.534576 164.315094,147.123093 157.356262,149.131226 
	C150.375610,151.145691 144.983582,148.563614 141.881119,141.843643 
	C136.212173,129.564636 140.191177,105.187943 149.531281,95.093895 
	C153.090027,91.247879 157.219330,88.523155 162.727951,89.936600 
	C168.149292,91.327667 169.256332,96.019691 170.233536,100.672318 
	C170.404205,101.484947 170.610306,102.290131 170.848587,103.546722 
z"/>
<path fill="#6cc3d5" opacity="1.000000" stroke="none" 
	d="
M133.858124,208.674408 
	C133.632965,208.752975 133.436127,208.524536 133.150574,208.078644 
	C133.303024,208.058960 133.577881,208.227692 133.858124,208.674408 
z"/>
<path fill="#6cc3d5" opacity="1.000000" stroke="none" 
	d="
M253.250854,246.122665 
	C247.704849,265.151489 222.116226,270.942139 207.211090,255.894058 
	C210.329330,252.048447 213.054459,248.020096 216.836365,245.760422 
	C228.860245,238.576126 241.172729,239.545105 253.250854,246.122665 
z"/>
<path fill="#6cc3d5" opacity="1.000000" stroke="none" 
	d="
M253.471130,245.830276 
	C241.172729,239.545105 228.860245,238.576126 216.836365,245.760422 
	C213.054459,248.020096 210.329330,252.048447 207.036713,255.599701 
	C206.354553,255.365509 205.657944,254.872192 205.172440,254.221390 
	C196.915726,243.153290 197.981537,238.571640 211.052704,234.988068 
	C223.341141,231.619095 235.984695,229.527634 248.500381,227.015411 
	C252.643143,226.183838 255.548401,227.741425 255.272751,232.408661 
	C255.013351,236.800888 254.239120,241.162689 253.471130,245.830276 
z"/>
<path fill="#6cc3d5" opacity="1.000000" stroke="none" 
	d="
M313.686279,193.242218 
	C309.318146,187.696121 309.994812,181.634827 314.566681,175.855530 
	C326.169037,161.188919 364.192566,161.682938 374.417389,174.635025 
	C380.218536,181.983536 380.171234,189.247192 372.486633,194.623108 
	C370.204041,196.219940 367.600891,197.542358 364.953644,198.403320 
	C350.995392,202.943008 336.894043,203.109924 322.907196,198.694916 
	C319.694580,197.680847 316.922363,195.271683 313.686279,193.242218 
z"/>
<path fill="#6cc3d5" opacity="1.000000" stroke="none" 
	d="
M136.869690,228.428009 
	C133.602570,232.506348 131.027664,237.183411 127.074692,239.667313 
	C117.675743,245.573288 107.416603,249.528214 95.853882,246.942795 
	C87.369843,245.045761 84.023178,237.980621 87.928711,230.233719 
	C94.802986,216.598099 116.127525,209.092804 129.886475,215.565903 
	C135.083115,218.010757 137.752487,222.084595 136.869690,228.428009 
z"/>
</svg>