<svg version="1.1" id="Layer_1" xmlns="http://www.w3.org/2000/svg" xmlns:xlink="http://www.w3.org/1999/xlink" x="0px" y="0px"
	 width="100%" viewBox="0 0 551 550" enable-background="new 0 0 551 550" xml:space="preserve">
<path fill="#853e2a" opacity="1.000000" stroke="none" 
	d="
M273.000000,1.000001 
	C275.370575,1.000000 277.741119,1.000000 280.746887,1.394381 
	C288.965057,2.191811 296.583862,2.263673 304.122284,3.078896 
	C314.325317,4.182271 324.601654,5.233640 334.608856,7.403512 
	C362.957825,13.550452 389.754730,23.876919 414.946838,38.396084 
	C432.841736,48.709572 449.288940,60.946098 464.339661,74.994049 
	C472.324829,82.447189 479.945221,90.380196 487.004181,98.711761 
	C494.145081,107.140030 501.137726,115.874115 506.848022,125.291199 
	C514.982910,138.706787 522.351929,152.642517 529.215454,166.760849 
	C540.643860,190.269104 546.977966,215.324997 550.025452,241.245956 
	C550.527405,245.515671 551.334106,249.749557 552.000000,254.000000 
	C552.000000,268.687561 552.000000,283.375122 551.610596,298.714600 
	C548.813721,314.302979 546.955139,329.354156 543.863953,344.147736 
	C539.707886,364.037964 532.107422,382.863342 522.895020,400.900116 
	C513.523193,419.248779 502.798706,436.892609 488.479401,451.899689 
	C475.641876,465.353882 463.064911,479.252930 448.874298,491.171295 
	C430.071960,506.962982 408.830566,519.335632 386.117340,529.024780 
	C362.407776,539.138916 337.888580,546.081055 312.255035,549.032166 
	C308.148926,549.504944 304.083984,550.335083 300.000000,551.000000 
	C284.979095,551.000000 269.958221,551.000000 254.285492,550.610657 
	C240.885147,548.389954 227.963425,547.341125 215.423721,544.566040 
	C188.386017,538.582458 162.846619,528.431396 138.890717,514.428772 
	C120.074280,503.430237 102.484947,490.753296 87.007286,475.381592 
	C78.813744,467.244141 71.139709,458.566895 63.476891,449.915649 
	C51.341099,436.214447 41.542397,420.883148 32.982094,404.756744 
	C24.071426,387.970367 16.867155,370.444641 12.066767,352.062286 
	C8.877075,339.847900 6.004239,327.475311 4.193906,314.998779 
	C2.591175,303.953033 2.664105,292.665070 1.941376,281.487671 
	C1.908137,280.973633 1.326318,280.495087 0.999999,280.000000 
	C1.000000,277.958344 1.000000,275.916656 1.394399,273.246460 
	C2.524480,261.940521 2.456866,251.131104 4.185505,240.617004 
	C6.731515,225.131378 9.740200,209.624603 14.013572,194.540970 
	C22.273447,165.386246 36.644978,139.051880 54.223389,114.507774 
	C67.545570,95.906479 83.392975,79.486961 100.867912,64.815506 
	C121.516090,47.479870 144.498322,33.706409 169.381439,23.239214 
	C201.074600,9.907341 233.984756,2.156287 268.514648,1.957023 
	C270.011536,1.948384 271.504974,1.332835 273.000000,1.000001 
M287.671631,519.441589 
	C292.815979,519.027527 297.974609,518.743530 303.102478,518.179565 
	C366.770233,511.177216 419.941956,483.222839 461.625763,435.133850 
	C508.767487,380.748230 527.216675,316.636353 518.618225,245.327911 
	C511.790283,188.702957 486.993652,140.352402 445.602753,101.227386 
	C387.105408,45.932411 317.108978,23.806215 237.894196,36.594006 
	C155.494141,49.895996 95.469322,96.151085 57.666573,170.212097 
	C35.503536,213.632660 28.719301,260.404968 35.361710,308.666138 
	C44.545368,375.391113 76.204605,429.500458 129.844269,470.235077 
	C176.104599,505.365723 228.674225,521.392090 287.671631,519.441589 
z"/>
<path fill="#FFFFFF" opacity="0.000000" stroke="none" 
	d="
M272.531342,1.000001 
	C271.504974,1.332835 270.011536,1.948384 268.514648,1.957023 
	C233.984756,2.156287 201.074600,9.907341 169.381439,23.239214 
	C144.498322,33.706409 121.516090,47.479870 100.867912,64.815506 
	C83.392975,79.486961 67.545570,95.906479 54.223389,114.507774 
	C36.644978,139.051880 22.273447,165.386246 14.013572,194.540970 
	C9.740200,209.624603 6.731515,225.131378 4.185505,240.617004 
	C2.456866,251.131104 2.524480,261.940521 1.394399,272.808960 
	C1.000000,182.406281 1.000000,91.812561 1.000000,1.000000 
	C91.354111,1.000000 181.708389,1.000000 272.531342,1.000001 
z"/>
<path fill="#FFFFFF" opacity="0.000000" stroke="none" 
	d="
M552.000000,253.531342 
	C551.334106,249.749557 550.527405,245.515671 550.025452,241.245956 
	C546.977966,215.324997 540.643860,190.269104 529.215454,166.760849 
	C522.351929,152.642517 514.982910,138.706787 506.848022,125.291199 
	C501.137726,115.874115 494.145081,107.140030 487.004181,98.711761 
	C479.945221,90.380196 472.324829,82.447189 464.339661,74.994049 
	C449.288940,60.946098 432.841736,48.709572 414.946838,38.396084 
	C389.754730,23.876919 362.957825,13.550452 334.608856,7.403512 
	C324.601654,5.233640 314.325317,4.182271 304.122284,3.078896 
	C296.583862,2.263673 288.965057,2.191811 281.191040,1.394381 
	C371.257843,1.000000 461.515717,1.000000 552.000000,1.000000 
	C552.000000,85.020760 552.000000,169.041718 552.000000,253.531342 
z"/>
<path fill="#FFFFFF" opacity="0.000000" stroke="none" 
	d="
M0.999999,280.468658 
	C1.326318,280.495087 1.908137,280.973633 1.941376,281.487671 
	C2.664105,292.665070 2.591175,303.953033 4.193906,314.998779 
	C6.004239,327.475311 8.877075,339.847900 12.066767,352.062286 
	C16.867155,370.444641 24.071426,387.970367 32.982094,404.756744 
	C41.542397,420.883148 51.341099,436.214447 63.476891,449.915649 
	C71.139709,458.566895 78.813744,467.244141 87.007286,475.381592 
	C102.484947,490.753296 120.074280,503.430237 138.890717,514.428772 
	C162.846619,528.431396 188.386017,538.582458 215.423721,544.566040 
	C227.963425,547.341125 240.885147,548.389954 253.816833,550.610657 
	C169.737106,551.000000 85.474213,551.000000 1.000000,551.000000 
	C1.000000,460.979218 1.000000,370.958252 0.999999,280.468658 
z"/>
<path fill="#FFFFFF" opacity="0.000000" stroke="none" 
	d="
M300.468658,551.000000 
	C304.083984,550.335083 308.148926,549.504944 312.255035,549.032166 
	C337.888580,546.081055 362.407776,539.138916 386.117340,529.024780 
	C408.830566,519.335632 430.071960,506.962982 448.874298,491.171295 
	C463.064911,479.252930 475.641876,465.353882 488.479401,451.899689 
	C502.798706,436.892609 513.523193,419.248779 522.895020,400.900116 
	C532.107422,382.863342 539.707886,364.037964 543.863953,344.147736 
	C546.955139,329.354156 548.813721,314.302979 551.610596,299.183258 
	C552.000000,382.927032 552.000000,466.854095 552.000000,551.000000 
	C468.312561,551.000000 384.624939,551.000000 300.468658,551.000000 
z"/>
<path fill="#ffd9ce" opacity="1.000000" stroke="none" 
	d="
M287.196960,519.449646 
	C228.674225,521.392090 176.104599,505.365723 129.844269,470.235077 
	C76.204605,429.500458 44.545368,375.391113 35.361710,308.666138 
	C28.719301,260.404968 35.503536,213.632660 57.666573,170.212097 
	C95.469322,96.151085 155.494141,49.895996 237.894196,36.594006 
	C317.108978,23.806215 387.105408,45.932411 445.602753,101.227386 
	C486.993652,140.352402 511.790283,188.702957 518.618225,245.327911 
	C527.216675,316.636353 508.767487,380.748230 461.625763,435.133850 
	C419.941956,483.222839 366.770233,511.177216 303.102478,518.179565 
	C297.974609,518.743530 292.815979,519.027527 287.196960,519.449646 
M358.358185,271.359406 
	C364.223450,282.699097 374.331055,287.733887 386.206177,290.300232 
	C402.532471,293.828552 418.134399,292.269684 432.141785,282.792480 
	C446.732880,272.920288 446.489624,257.272522 432.107941,247.072128 
	C422.749176,240.434326 411.984253,238.540649 400.914886,238.069855 
	C389.657898,237.591080 379.281708,241.148117 369.393066,245.149063 
	C374.670441,216.497391 373.816589,187.831894 369.359497,159.199020 
	C367.610229,147.961258 364.748016,136.989075 358.107574,127.480476 
	C347.575439,112.399323 328.323120,112.683136 318.941650,128.504532 
	C315.282898,134.674835 312.687897,141.826569 311.195496,148.867706 
	C305.857269,174.053467 306.890320,199.505203 309.614563,224.908829 
	C311.039246,238.194107 313.651855,251.221619 320.135620,263.151642 
	C328.606171,278.737335 345.378052,281.796875 358.358185,271.359406 
M183.944519,245.771210 
	C182.283356,245.004456 180.646820,244.178070 178.957260,243.480026 
	C159.445786,235.418671 140.282715,235.652115 122.161682,247.050171 
	C110.950226,254.102127 107.792305,265.387573 114.139961,274.765442 
	C116.839905,278.754272 120.859573,282.244049 124.997040,284.798401 
	C144.434830,296.798737 185.240128,294.488556 196.749908,271.204742 
	C208.593033,280.756134 222.453537,279.460968 231.007355,267.075806 
	C234.983154,261.319214 238.133850,254.536469 239.860550,247.760696 
	C247.892426,216.242920 248.322952,184.272797 243.596420,152.223541 
	C242.210068,142.823090 239.477280,133.655029 233.484024,125.948067 
	C223.707382,113.375900 206.541595,113.125328 197.233810,125.965263 
	C193.222305,131.499100 189.928223,138.053406 188.176758,144.640915 
	C179.279755,178.103760 179.028458,211.990646 183.944519,245.771210 
M308.758850,317.233490 
	C310.534180,315.588074 312.172821,313.755096 314.115509,312.339325 
	C317.388733,309.953918 318.580811,307.010345 317.017517,303.259277 
	C315.518646,299.662811 312.482880,298.362183 308.870605,299.162415 
	C304.935974,300.034058 303.440094,302.925934 303.165131,306.887695 
	C303.011353,309.103790 302.476959,311.772095 301.098755,313.349609 
	C289.077972,327.109039 264.607361,327.001556 252.716583,313.160339 
	C251.437256,311.671143 250.883392,309.180206 250.801483,307.121796 
	C250.643906,303.161865 249.243774,300.189026 245.340836,299.223389 
	C241.535675,298.281982 238.395737,299.626373 236.880371,303.508331 
	C235.377991,307.356995 236.771591,310.209503 240.095062,312.450684 
	C241.687500,313.524536 243.288025,314.771393 244.445206,316.277649 
	C259.835754,336.311707 291.778625,337.091553 308.758850,317.233490 
z"/>
<path fill="#853e2a" opacity="1.000000" stroke="none" 
	d="
M184.696030,246.019867 
	C179.028458,211.990646 179.279755,178.103760 188.176758,144.640915 
	C189.928223,138.053406 193.222305,131.499100 197.233810,125.965263 
	C206.541595,113.125328 223.707382,113.375900 233.484024,125.948067 
	C239.477280,133.655029 242.210068,142.823090 243.596420,152.223541 
	C248.322952,184.272797 247.892426,216.242920 239.860550,247.760696 
	C238.133850,254.536469 234.983154,261.319214 231.007355,267.075806 
	C222.453537,279.460968 208.593033,280.756134 196.303253,270.743408 
	C189.616791,263.353699 187.003448,254.757141 184.696030,246.019867 
M205.783066,191.843948 
	C214.810852,197.313812 223.591965,195.079010 228.158401,185.391785 
	C234.454025,172.036255 234.690598,158.022125 230.422516,144.049866 
	C228.365143,137.314682 224.098648,132.288284 216.311401,131.869064 
	C209.420776,131.498138 204.147491,135.220154 200.904770,143.062302 
	C196.661636,153.323898 196.177444,164.033325 197.752243,174.913406 
	C198.651337,181.125000 200.456467,186.914581 205.783066,191.843948 
z"/>
<path fill="#853e2a" opacity="1.000000" stroke="none" 
	d="
M357.842529,270.890717 
	C345.378052,281.796875 328.606171,278.737335 320.135620,263.151642 
	C313.651855,251.221619 311.039246,238.194107 309.614563,224.908829 
	C306.890320,199.505203 305.857269,174.053467 311.195496,148.867706 
	C312.687897,141.826569 315.282898,134.674835 318.941650,128.504532 
	C328.323120,112.683136 347.575439,112.399323 358.107574,127.480476 
	C364.748016,136.989075 367.610229,147.961258 369.359497,159.199020 
	C373.816589,187.831894 374.670441,216.497391 369.218445,245.903107 
	C367.024261,255.527374 363.788605,263.835449 357.842529,270.890717 
M321.169617,154.907822 
	C320.615021,165.614578 320.866425,176.221466 326.041809,185.999985 
	C328.973114,191.538437 333.537720,194.970657 340.015167,194.763962 
	C346.275909,194.564178 350.723297,191.127045 353.039917,185.465393 
	C359.217346,170.368301 358.557953,155.263885 351.817230,140.561081 
	C349.139404,134.720261 344.176636,131.457062 337.379395,131.880264 
	C330.753601,132.292786 326.705444,136.344055 324.381775,142.006180 
	C322.826630,145.795547 322.256500,149.989182 321.169617,154.907822 
z"/>
<path fill="#ff7851" opacity="1.000000" stroke="none" 
	d="
M358.100342,271.125061 
	C363.788605,263.835449 367.024261,255.527374 369.173279,246.341492 
	C379.281708,241.148117 389.657898,237.591080 400.914886,238.069855 
	C411.984253,238.540649 422.749176,240.434326 432.107941,247.072128 
	C446.489624,257.272522 446.732880,272.920288 432.141785,282.792480 
	C418.134399,292.269684 402.532471,293.828552 386.206177,290.300232 
	C374.331055,287.733887 364.223450,282.699097 358.100342,271.125061 
M409.479889,283.055664 
	C415.499390,280.805786 421.996246,279.358734 427.431885,276.126831 
	C436.690826,270.621704 436.591309,259.321167 427.336273,253.691589 
	C410.458984,243.425583 392.902405,243.510284 375.470886,252.301971 
	C363.481415,258.348907 362.769806,269.675903 374.041412,276.909607 
	C384.544006,283.649780 396.364502,285.052887 409.479889,283.055664 
z"/>
<path fill="#ff7851" opacity="1.000000" stroke="none" 
	d="
M184.320282,245.895538 
	C187.003448,254.757141 189.616791,263.353699 196.005493,270.586548 
	C185.240128,294.488556 144.434830,296.798737 124.997040,284.798401 
	C120.859573,282.244049 116.839905,278.754272 114.139961,274.765442 
	C107.792305,265.387573 110.950226,254.102127 122.161682,247.050171 
	C140.282715,235.652115 159.445786,235.418671 178.957260,243.480026 
	C180.646820,244.178070 182.283356,245.004456 184.320282,245.895538 
M183.020447,255.481857 
	C168.189957,242.618881 138.716125,243.537064 124.724678,254.948456 
	C117.970657,260.457031 117.964233,270.988647 125.568321,275.401245 
	C132.023407,279.147064 139.411118,282.330170 146.718994,283.330353 
	C159.383041,285.063568 172.111267,283.645874 182.508102,274.906830 
	C189.649902,268.903748 189.703644,263.095642 183.020447,255.481857 
z"/>
<path fill="#853e2a" opacity="1.000000" stroke="none" 
	d="
M308.527771,317.504089 
	C291.778625,337.091553 259.835754,336.311707 244.445206,316.277649 
	C243.288025,314.771393 241.687500,313.524536 240.095062,312.450684 
	C236.771591,310.209503 235.377991,307.356995 236.880371,303.508331 
	C238.395737,299.626373 241.535675,298.281982 245.340836,299.223389 
	C249.243774,300.189026 250.643906,303.161865 250.801483,307.121796 
	C250.883392,309.180206 251.437256,311.671143 252.716583,313.160339 
	C264.607361,327.001556 289.077972,327.109039 301.098755,313.349609 
	C302.476959,311.772095 303.011353,309.103790 303.165131,306.887695 
	C303.440094,302.925934 304.935974,300.034058 308.870605,299.162415 
	C312.482880,298.362183 315.518646,299.662811 317.017517,303.259277 
	C318.580811,307.010345 317.388733,309.953918 314.115509,312.339325 
	C312.172821,313.755096 310.534180,315.588074 308.527771,317.504089 
z"/>
<path fill="#FEFDFD" opacity="1.000000" stroke="none" 
	d="
M205.503021,191.604431 
	C200.456467,186.914581 198.651337,181.125000 197.752243,174.913406 
	C196.177444,164.033325 196.661636,153.323898 200.904770,143.062302 
	C204.147491,135.220154 209.420776,131.498138 216.311401,131.869064 
	C224.098648,132.288284 228.365143,137.314682 230.422516,144.049866 
	C234.690598,158.022125 234.454025,172.036255 228.158401,185.391785 
	C223.591965,195.079010 214.810852,197.313812 205.503021,191.604431 
z"/>
<path fill="#FEFDFD" opacity="1.000000" stroke="none" 
	d="
M321.207611,154.454865 
	C322.256500,149.989182 322.826630,145.795547 324.381775,142.006180 
	C326.705444,136.344055 330.753601,132.292786 337.379395,131.880264 
	C344.176636,131.457062 349.139404,134.720261 351.817230,140.561081 
	C358.557953,155.263885 359.217346,170.368301 353.039917,185.465393 
	C350.723297,191.127045 346.275909,194.564178 340.015167,194.763962 
	C333.537720,194.970657 328.973114,191.538437 326.041809,185.999985 
	C320.866425,176.221466 320.615021,165.614578 321.207611,154.454865 
z"/>
<path fill="#ff7851" opacity="1.000000" stroke="none" 
	d="
M409.044128,283.103882 
	C396.364502,285.052887 384.544006,283.649780 374.041412,276.909607 
	C362.769806,269.675903 363.481415,258.348907 375.470886,252.301971 
	C392.902405,243.510284 410.458984,243.425583 427.336273,253.691589 
	C436.591309,259.321167 436.690826,270.621704 427.431885,276.126831 
	C421.996246,279.358734 415.499390,280.805786 409.044128,283.103882 
z"/>
<path fill="#ff7851" opacity="1.000000" stroke="none" 
	d="
M183.281097,255.739166 
	C189.703644,263.095642 189.649902,268.903748 182.508102,274.906830 
	C172.111267,283.645874 159.383041,285.063568 146.718994,283.330353 
	C139.411118,282.330170 132.023407,279.147064 125.568321,275.401245 
	C117.964233,270.988647 117.970657,260.457031 124.724678,254.948456 
	C138.716125,243.537064 168.189957,242.618881 183.281097,255.739166 
z"/>
</svg>